<svg width="28" height="22" viewBox="0 0 28 22" fill="none" xmlns="http://www.w3.org/2000/svg">
<path d="M27.4522 18.8441L27.4307 18.8159L27.4164 18.8007L27.4044 18.7921L27.3686 18.7813L27.3542 18.7704L27.316 18.7401L27.2993 18.7336H27.285L27.2085 18.7553L27.1918 18.7574L27.1679 18.7553H27.1297L27.058 18.7769L27.0197 18.7834L26.9385 18.7986L26.9002 18.8007L26.8573 18.7921L26.8238 18.7748L26.8119 18.7704L26.8023 18.7726L26.7833 18.7834H26.7737L26.7522 18.7726L26.6924 18.7206H26.714L26.7283 18.7097L26.7355 18.6924L26.7426 18.6707L26.745 18.6469L26.7379 18.6317L26.7116 18.5992L26.7833 18.441L26.7927 18.3781L26.745 17.8774L26.6829 17.6303L26.7259 17.3074L26.7187 17.2532L26.6877 17.2358L26.4583 17.2792L26.4296 17.264L26.3413 17.173L26.3221 17.1405L26.3126 17.1145L26.303 17.0993L26.2887 17.0906L26.2648 17.0841L26.2409 17.0711L26.2266 17.0538L26.2146 17.0321L26.2003 17.0148L26.1596 16.9953L25.9757 16.9606L25.8586 16.9107L25.8156 16.9021L25.7225 16.8956L25.6794 16.8825L25.6126 16.8457L25.5289 16.824L25.5026 16.811L25.4597 16.7633L25.3712 16.6853L25.3115 16.6138L25.1681 16.4902L25.1275 16.4447L25.0869 16.3623L25.0463 16.319L25.0392 16.2973L25.0367 16.2713L25.0272 16.2431L24.9699 16.1153L24.9579 16.1001L24.9411 16.0871L24.9221 16.0806L24.9125 16.0719L24.9101 16.0632L24.9125 16.0546L24.9221 16.0437L24.9364 16.0329L24.9411 16.0177L24.9364 16.0047L24.9221 15.9961L24.8982 15.9852L24.8886 15.9636L24.8814 15.9375L24.8671 15.9158L24.8504 15.9094L24.8385 15.9072L24.8265 15.9028L24.8122 15.8877L24.805 15.8703L24.8002 15.8335L24.7954 15.8161L24.7787 15.7902L24.7333 15.7446L24.719 15.7143V15.6861L24.7357 15.6319L24.7381 15.6037L24.7261 15.5647L24.7022 15.5495L24.6736 15.5387L24.6449 15.517L24.2244 15.0467L24.0381 14.8408L24.2244 14.637L24.9006 13.8892L25.3521 13.3842L25.376 13.3604L25.3736 13.3517H25.3712L25.3736 13.3235L25.376 13.3127L25.3856 13.3084L25.3808 13.2065L25.3736 13.1892L25.3999 13.1415L25.4095 13.109V13.0808L25.4047 13.0504L25.3856 13.0006L25.3617 12.9529L25.3592 12.9377L25.3569 12.8943L25.3449 12.8597L25.3067 12.8033L25.2924 12.773V12.7426L25.302 12.6798L25.2924 12.6516L25.2422 12.5931L25.2159 12.5736L25.18 12.5606L24.4299 12.4587L24.0524 12.4089L24.0046 12.3915L23.9879 12.2506L23.9688 12.1791L23.964 12.1444L23.9831 12.0317L23.964 11.8952L23.9592 11.8214L23.9712 11.7283L23.9688 11.6958L23.9616 11.6806L23.9545 11.6654L23.9521 11.6503L23.964 11.6177L23.9568 11.6091L23.9449 11.6025L23.9401 11.5939L23.9496 11.57L23.9879 11.5288L23.9951 11.5028L24.0142 11.3836L24.0166 11.2623L23.9091 10.8938L23.6629 10.146L23.6439 10.0507L23.6415 9.93144L23.6486 9.91191L23.9138 9.58893L23.9545 9.55642L24.0023 9.53046L24.0166 9.51307L24.0238 9.48492L24.0213 9.45889L24.0166 9.43292L24.019 9.41124L24.0452 9.39822L24.1121 9.39386L24.1313 9.38738L24.1432 9.36789L24.1313 9.34622L24.1074 9.32669L24.0859 9.31585L24.0405 9.30502L23.9855 9.30068L23.8828 9.30716L23.7729 9.29853L23.6606 9.25733L23.5722 9.18147L23.5364 9.07309L23.5483 9.02324L23.5913 8.93654L23.5937 8.87802L23.5554 8.64829L23.5387 8.52039L23.5364 8.49871L23.5459 8.43154L23.5842 8.36216L23.6295 8.31014L23.6773 8.26462L23.7442 8.23428L23.7657 8.2126L23.7562 8.18009L24.1026 8.16275L24.0859 8.13457L23.9807 8.01536L23.9592 7.97637L23.9473 7.95903L23.9282 7.946L23.8947 7.93083L23.8828 7.91999L23.8709 7.88531L23.8613 7.87448L23.8493 7.86799H23.835L23.8541 7.83548L23.8899 7.82029L23.9664 7.81162L24.0023 7.80297L24.0285 7.78563L24.093 7.72061L24.1002 7.70977L24.1074 7.69893L24.1265 7.69024L24.1456 7.68809H24.1647L24.1814 7.6859L24.1958 7.66856L24.2005 7.63172L24.1958 7.5927L24.1981 7.55804L24.2244 7.53203L24.2674 7.50167L24.2961 7.45832L24.3033 7.43231L24.3463 7.4193L24.3582 7.37162L24.363 7.31743V7.30445L24.3558 7.27627V7.2611L24.3582 7.24376L24.3797 7.21556L24.3845 7.20041L24.3869 7.17221L24.4084 7.11586L24.4155 7.053L24.4275 7.03132L24.461 6.99016L24.4466 6.97714L24.4443 6.96413L24.4466 6.95115L24.449 6.93379L24.4466 6.92728L24.3965 6.86876L24.3893 6.85361L24.3988 6.84709L24.4108 6.84058L24.4132 6.82541L24.406 6.81241L24.3988 6.80593L24.3965 6.79073L24.3988 6.75822L24.406 6.72788L24.4251 6.71272H24.4562L24.4897 6.7062L24.5159 6.6932L24.5279 6.66719L24.5207 6.58918L24.5279 6.55881L24.535 6.54147L24.5637 6.50681L24.5733 6.49164L24.5852 6.4461L24.5996 6.41578L24.633 6.38108L24.6521 6.3529L24.6593 6.32258L24.6569 6.29221L24.6425 6.23154L24.6305 6.21635L24.5972 6.17085L24.578 6.13615L24.5757 6.09714L24.5804 6.08847L24.5996 6.07113L24.6043 6.06029L24.6019 6.03428L24.6043 6.02561L24.6139 5.99093V5.97576L24.6043 5.96492L24.6139 5.93241L24.6115 5.9064L24.6066 5.88472L24.5996 5.83054L24.5924 5.80453L24.5804 5.78068L24.5637 5.75901L24.5422 5.73517L24.5183 5.71566L24.4897 5.70265L24.4562 5.69832L24.4371 5.68965L24.4514 5.67231L24.4801 5.6528L24.4968 5.63546L24.4991 5.62246L24.4944 5.59211L24.4968 5.57477L24.5063 5.5661L24.5207 5.56177L24.5326 5.55527L24.5374 5.53793V5.52492L24.5398 5.50975L24.5446 5.49674L24.5518 5.48591L24.5661 5.47073L24.5685 5.4599L24.5661 5.45339L24.5637 5.40788L24.5422 5.31467L24.5207 5.2865L24.5159 5.27132V5.23664L24.5135 5.22147L24.5087 5.20413L24.5016 5.19546L24.4944 5.18679L24.4825 5.18029L24.4705 5.17379L24.4729 5.16295L24.4752 5.16078L24.4801 5.15428L24.4586 5.11093L24.4681 5.03724L24.4968 4.91802L24.4897 4.89418L24.4872 4.87684L24.4944 4.86167L24.5016 4.84866L24.5087 4.83566L24.5159 4.81832V4.79881V4.78147L24.5087 4.7663L24.4968 4.74463L24.4872 4.69261L24.4299 4.6861L24.3606 4.67527L23.3357 4.69261L23.2879 4.66876L23.2592 4.62541L23.2186 4.53438L23.1899 4.4932L23.0417 4.33931L22.9773 4.25261L22.9247 4.15724L22.8817 4.10955L22.8316 4.09005L22.7145 4.07271L22.6643 4.0467L22.5735 3.98167L22.3704 3.92532L22.3561 3.92315L22.3442 3.92965L22.3275 3.95133L22.3179 3.96L22.3036 3.96216L22.2844 3.95133L22.2749 3.92532L22.2677 3.89714L22.2582 3.8733L22.2343 3.85162L22.2151 3.84945L22.1697 3.86463H22.1578L22.1458 3.85812L22.1363 3.85162L22.1268 3.84295L22.1029 3.83862L22.1005 3.82778L22.1029 3.81477L22.1052 3.80394L22.1076 3.7996L22.1124 3.79527L22.1148 3.78876L22.1052 3.77793L22.079 3.75408L21.993 3.69123L21.9762 3.66955L21.9476 3.56768L21.9452 3.53517L21.9499 3.52L21.9571 3.50482L21.9643 3.49182L21.9595 3.47881L21.9523 3.46147L21.9547 3.42896L21.9499 3.40945L21.9213 3.37694L21.8949 3.35527L21.8616 3.3466L21.7827 3.37911L21.7541 3.37477L21.5677 3.26207L21.5223 3.22088L21.5056 3.21438L21.4649 3.20788L21.4459 3.20354L21.4267 3.19054L21.3718 3.16886L21.2643 3.14936L21.1782 3.10817L21.1711 3.11901L21.1687 3.14069L21.1496 3.16019L21.1353 3.16453L21.1209 3.1667L21.0898 3.16236H21.0755L21.0659 3.16886L21.0564 3.17753L21.0444 3.18404L21.0134 3.1862L20.98 3.18187L20.9202 3.16236L20.8509 3.10817L20.827 3.09734L20.8008 3.0995L20.7792 3.11251L20.7625 3.13418L20.7481 3.16019L20.7291 3.18404L20.7052 3.19487L20.5786 3.20571L20.5595 3.20138L20.5236 3.17753L20.5045 3.17103L20.397 3.15803L20.3731 3.14936L20.3492 3.13202L20.342 3.11468V3.09517L20.3373 3.06699L20.3325 3.05615L20.311 3.02147L20.3086 3.01064L20.3134 2.9998V2.98896L20.3014 2.97812L20.2775 2.96946L20.256 2.96512L20.2082 2.96078L20.1175 2.94345L19.8976 2.85241L19.8475 2.84157L19.826 2.84374L19.8021 2.84808L19.7782 2.85024L19.7591 2.84157L19.7495 2.8329L19.7376 2.81123L19.728 2.80256L19.7161 2.80039L19.6922 2.80473H19.6898L19.6802 2.80256L19.6635 2.79389L19.6468 2.78088L19.6277 2.77005H19.6062L19.5847 2.77438L19.5177 2.77655L19.446 2.75921L19.4222 2.75704L19.3983 2.75921L19.3768 2.76571L19.3553 2.76788L19.1523 2.70069L19.1188 2.6595L19.1451 2.58147L19.1499 2.55547L19.1427 2.52946L19.1116 2.49478L19.0949 2.44926L19.0495 2.40808L19.0328 2.3864L19.0089 2.33438L18.9754 2.28886L18.9707 2.27586V2.26502L18.9659 2.25418L18.9515 2.24551L18.9204 2.23684H18.9061H18.8894L18.8656 2.24768L18.8488 2.26285L18.8201 2.30404L18.8034 2.31921L18.758 2.34522L18.7389 2.35822L18.715 2.37123L18.6864 2.36689L18.629 2.34739L18.4187 2.31487L18.3973 2.30837L18.3495 2.28453L18.2945 2.24768L18.2826 2.24551L18.2156 2.25635L18.1034 2.29753L18.0795 2.2997L18.0628 2.2932L18.0437 2.28019L18.0245 2.27152L18.0006 2.26719L17.8717 2.26936L17.8214 2.2867L17.7736 2.31487L17.6853 2.38207L17.6781 2.40374L17.7164 2.44059L17.7211 2.4666L17.7164 2.49478L17.702 2.51862L17.6805 2.53162L17.5611 2.54896L17.5396 2.5468L17.4965 2.53162L17.4894 2.52729L17.4321 2.52295L17.2313 2.5533L17.2098 2.55113L17.1907 2.5468L17.1524 2.52946L17.1286 2.52295H17.0569L17.0378 2.51645L16.9829 2.49044L16.8969 2.4731H16.8538L16.579 2.52295L16.4883 2.52729L16.4549 2.53813L16.3521 2.60532L16.3211 2.61832L16.2923 2.63783L16.2781 2.64L16.2136 2.6595L16.1825 2.67251L16.1705 2.69635L16.1538 2.70285L16.0726 2.71586L16.0463 2.72236L16.0344 2.73537L16.0176 2.76138L16.0081 2.77221L15.9937 2.77872L15.9747 2.78088L15.9555 2.78955L15.9484 2.80906L15.9388 2.82423L15.8719 2.88709L15.6617 3.00847L15.621 3.04748L15.6019 3.07349L15.5948 3.09734L15.59 3.12551L15.5661 3.1732L15.5685 3.20354L15.5733 3.21221L15.59 3.22522L15.5948 3.23606L15.5971 3.24473L15.5948 3.28157L15.59 3.30325L15.5709 3.34009L15.5685 3.36394L15.5613 3.37477L15.5255 3.39862L15.4586 3.43546L15.4419 3.45064L15.4132 3.45931L15.3797 3.49182L15.3582 3.50049H15.3272L15.2436 3.48532L15.2101 3.48965L14.9736 3.6067L14.9234 3.6197H14.8923L14.8613 3.61537L14.8302 3.61753L14.8039 3.63271L14.7801 3.65438L14.7538 3.66305H14.7251L14.3452 3.63487L14.3571 3.76275L14.3643 3.78443L14.4074 3.88197L14.4384 4.00768L14.4599 4.06404L14.4934 4.10738L14.4623 4.1594L14.4575 4.18108L14.4838 4.18975L14.5053 4.20059L14.5124 4.22443V4.38049L14.5029 4.40433L14.4862 4.41734L14.3093 4.45852L14.2854 4.45202L14.264 4.44118L14.0538 4.42384H14.0466L13.9892 4.40216L13.9558 4.36315L13.9677 4.36098L13.9964 4.35448L13.9486 4.35665L13.9295 4.35014L13.92 4.3328H13.9916L14.0729 4.34364L14.0943 4.33931L14.1326 4.3263L14.154 4.32413L14.1923 4.3328L14.2114 4.33497L14.2282 4.32847L14.2927 4.31113L14.393 4.30029L14.4718 4.27645L14.4742 4.22009L14.4074 4.26995L14.307 4.28945L13.7551 4.31763L13.693 4.3263L13.2295 4.41517L12.9977 4.47586L12.7588 4.53871L12.5199 4.5799L12.2714 4.62108L12.0301 4.67093L11.8007 4.74463L11.5403 4.7728L11.2919 4.71211L11.0338 4.67093L10.7853 4.61024L10.3935 4.54305L10.2765 4.49753L10.0758 4.37399L9.85356 4.27211L9.83447 4.25477L9.79147 4.21793L9.77236 4.20926L9.74369 4.20492L9.67679 4.16591L9.58839 4.11389L9.56213 4.10738L9.54061 4.09655L9.47132 4.02502L9.371 3.96L9.32322 3.91881L9.28019 3.86029L9.24674 3.78009L9.22765 3.75192L9.21329 3.73024L9.19657 3.67606L9.18462 3.65655L9.1894 3.60236L9.14403 3.56551L9.0795 3.54384L8.89792 3.50916L8.78085 3.47014L8.7928 3.45714L8.79997 3.45931L8.8143 3.46364L8.82864 3.46147L8.77846 3.4398L8.73307 3.4463L8.68529 3.46364L8.62795 3.47014L8.09038 3.40729L7.98528 3.37911L7.76068 3.27724L7.65794 3.21655L7.56477 3.13202L7.49309 3.04315L7.46442 2.9868L7.45009 2.92827L7.45248 2.91744L7.45486 2.90226V2.88709L7.40708 2.8199L7.39514 2.79606L7.39036 2.76354V2.73103L7.4023 2.70069L7.34496 2.52729L7.32346 2.34305L7.29718 2.28886L7.29479 2.20867L7.28523 2.17832L7.30196 2.13281L7.29718 2.00276L7.20639 1.98542H7.16102L7.12994 2.00059L7.10129 2.02226L7.06782 2.04177L7.02962 2.05478L6.99614 2.06345L6.93164 2.05911H6.92447L6.87908 2.02226L6.84085 1.96808L6.78829 1.91172L6.76678 1.88788L6.74289 1.8662L6.72139 1.83586L6.6975 1.81852L6.68077 1.79901L6.67122 1.75783L6.65449 1.72532H6.62105L6.55176 1.7535H6.50875L6.48247 1.73399L6.46097 1.70581L6.39169 1.66029L6.3893 1.63428L6.39646 1.60611L6.38452 1.57143L6.36779 1.55842L6.18383 1.48256L6.09065 1.42187L6.06437 1.37852L6.06198 1.31783L6.07393 1.30049L6.14799 1.26148L6.15038 1.25281V1.24197L6.15516 1.23113L6.41319 1.19428L6.47053 1.16394L6.48486 1.1466L6.49442 1.12926L6.50159 1.10759V1.08591L6.49442 1.06857L6.4538 0.992708L6.4323 0.975368L6.35107 0.947191L6.27223 0.882167L6.23878 0.843152L6.21967 0.80197L6.22205 0.752117L6.24834 0.708768L6.28895 0.676255L6.33435 0.656748L6.42274 0.641576L6.49681 0.600393L6.54698 0.587389L6.51592 0.533201L6.4777 0.487684L6.38213 0.41399L6.1456 0.182069L6.06198 0.114877L6.03331 0.0997043L6.0142 0.0953694L5.99747 0.114877L5.98314 0.125714L5.96641 0.130049L5.8589 0.127882L5.82545 0.136552L5.79917 0.151724L5.71794 0.221084L5.52442 0.30995L5.45035 0.372808L5.43124 0.383645L5.40018 0.385812L5.30223 0.41399L5.24489 0.44L5.19949 0.472512L5.12782 0.546206L5.08242 0.585221L5.02508 0.613398L4.88412 0.658916L4.81722 0.693595L4.80528 0.7066L4.8005 0.719605L4.74794 0.786797L4.72644 0.845319L4.71927 0.856157L4.70254 0.869162L4.69538 0.873497L4.61176 0.914679L4.59264 0.916846L4.57114 0.912511L4.53291 0.897339H4.51141L4.48752 0.906009L4.46602 0.921181L4.4469 0.940689L4.41107 0.992708L4.4039 1.00138L4.39195 1.00788L4.37045 1.01872L4.3585 1.02739L4.34178 1.04906L4.31789 1.09458L4.29639 1.11192L4.21515 1.1466L4.18887 1.16394L4.16976 1.18561L4.13153 1.25281L4.11481 1.27448L4.0957 1.29182L4.07419 1.30699L4.0503 1.32L4.02163 1.32867L3.99535 1.33084L3.97146 1.32433L3.82572 1.27015L3.80661 1.26798H3.78988L3.75643 1.27882H3.70148L3.68476 1.28315L3.65609 1.29399L3.58441 1.33734L3.56052 1.34818L3.46735 1.35901H3.45301L3.37178 1.34384L3.2786 1.30699L2.98473 1.25714L2.87961 1.22246L2.75537 1.22029L2.67653 1.20512L2.6383 1.20295L2.62158 1.20079L2.59052 1.18561L2.57141 1.18128L2.55229 1.17694L2.52124 1.16394L2.49257 1.14877L2.47584 1.13143L2.47345 1.11626L2.47584 1.10325L2.48301 1.09025L2.4854 1.07507L2.47823 1.0664L2.44478 1.0534L2.43284 1.04473L2.42567 1.03172L2.41372 0.999211L2.40894 0.988373L2.39461 0.975368L2.38266 0.968866L2.37072 0.962364L2.36116 0.947191L2.37311 0.925516L2.36594 0.908176L2.34683 0.899506L2.32771 0.895171L2.31338 0.890837V0.877832L2.31577 0.862659L2.31338 0.853989L2.29904 0.851822L2.2871 0.856157L2.27754 0.862659L2.27276 0.864827L2.12941 0.825812L2.09119 0.834482L2.08163 0.812807L2.06729 0.736945L2.05774 0.721773L2.04579 0.7066L2.01234 0.643743L2.0004 0.628571L1.98845 0.624236L1.97412 0.609063L1.96217 0.593891L1.95739 0.583054L1.95022 0.574384L1.90005 0.546206L1.89527 0.541871L1.89288 0.535369L1.88811 0.528866L1.87616 0.526699H1.86183L1.85466 0.524531L1.81882 0.502857L1.81165 0.494187L1.8236 0.474679L1.79493 0.453004L1.7782 0.42266L1.7352 0.279606L1.71848 0.247093L1.68981 0.229753L1.69458 0.225419L1.69936 0.218916L1.6683 0.216749L1.63724 0.212414L1.61096 0.201576L1.60857 0.197241L1.49389 0.127882L1.46761 0.108374L1.38399 0.0780295L1.36488 0.0585221L1.32665 0.0108374L1.30515 0L1.2717 0.00866995L1.12118 0.108374L1.11641 0.125714L1.12357 0.175566L1.11879 0.197241L1.11163 0.216749L1.06384 0.294778L1.05907 0.314285L1.05668 0.340295L1.05907 0.359803L1.06384 0.37931L1.06145 0.39665L1.04951 0.416157H1.04712L1.04234 0.44867L1.04712 0.476847L1.04473 0.505024L1.02323 0.533201L0.994558 0.550541L0.922883 0.576551L0.891823 0.583054L0.855986 0.580886L0.760419 0.541871L0.726971 0.537536L0.650518 0.554876L0.617069 0.557044L0.588399 0.554876H0.564507L0.545394 0.561379L0.516724 0.576551L0.5 0.593891L0.509557 0.613398L0.545394 0.648078L0.552562 0.663251L0.559729 0.695763L0.576453 0.72394V0.734778L0.574064 0.745615V0.75862L0.578843 0.771625L0.595567 0.80197V0.814975L0.58601 0.840984L0.588399 0.853989L0.624237 0.877832L0.686355 0.906009L0.741306 0.936354L0.750862 0.973201L0.724582 1.01872L0.717414 1.04256L0.72936 1.10108L0.717414 1.12059L0.693523 1.13576L0.674409 1.16394L0.681577 1.17478L0.686355 1.18345L0.691133 1.20729L0.70069 1.21813L0.712636 1.2268L0.724582 1.23547V1.24847V1.26148L0.72936 1.27231L0.734138 1.28532L0.748473 1.31783L0.767587 1.33951L0.789089 1.35901L0.863153 1.38936L0.870321 1.43271L0.832094 1.54108L0.827316 1.57143L0.829705 1.58877L0.836873 1.60827L0.84404 1.63428L0.836873 1.64512L0.824927 1.65596L0.820148 1.66463L0.839262 1.6733L0.863153 1.6798L0.875099 1.6863L0.884656 1.69497L0.894212 1.71882V1.75133L0.887045 1.80985L0.90138 1.88571L0.898991 1.91172L0.882267 1.97241V1.98975L0.884656 2.02877V2.04177L0.879878 2.06561L0.884656 2.07862L0.896602 2.08729L0.918104 2.09379L0.98739 2.10463L1.03278 2.08295L1.0519 2.08079L1.0734 2.08729L1.09251 2.10029L1.11163 2.12197L1.12118 2.14581V2.16965L1.09012 2.2065L1.03995 2.24118L0.999336 2.27803L1.0065 2.34955L1.00172 2.3799L0.992168 2.40808L0.982612 2.42975L0.973055 2.44276L0.949163 2.45143L0.937218 2.4601L0.934828 2.4731L0.946774 2.50128L0.939607 2.50995L0.910937 2.52079L0.894212 2.53379L0.879878 2.5533L0.867932 2.58364L0.855986 2.60749L0.822537 2.64L0.810592 2.6595V2.66167L0.798646 2.67901L0.789089 2.69852L0.7867 2.71803L0.793868 2.73753V2.75704L0.781922 2.77438L0.767587 2.78955L0.762808 2.80473L0.7867 2.83724L0.834483 2.84591L0.925272 2.83507L0.941996 2.83941L0.992168 2.86108L1.00889 2.86975L1.01606 2.88276L1.02084 2.9001L1.0304 2.9196L1.04473 2.93694L1.05668 2.93911L1.06623 2.93694L1.07579 2.93478L1.08535 2.94128V2.94995L1.08057 2.97379V2.98246L1.09012 2.9998L1.10924 3.00197L1.13074 2.9933L1.14985 2.98463L1.18808 2.98246L1.22631 2.99763L1.26214 3.02364L1.31232 3.07566L1.3171 3.09083L1.30276 3.11034L1.25259 3.14285L1.24303 3.15586L1.23586 3.20138L1.26453 3.22739L1.29559 3.24906L1.30037 3.27507L1.28843 3.30542L1.27887 3.34226L1.27648 3.37911L1.28365 3.40945L1.28843 3.43546L1.2717 3.47881L1.27887 3.50482L1.29798 3.51349L1.35054 3.51783L1.37205 3.53083L1.39116 3.57418L1.40549 3.58719L1.45567 3.58069L1.46761 3.59369L1.47717 3.61537L1.48912 3.63487L1.56796 3.67822L1.60141 3.71074L1.59663 3.75842L1.5799 3.77793L1.56079 3.7866L1.54407 3.7996L1.53212 3.82561L1.5369 3.85596L1.55123 3.88197L1.56079 3.90798L1.55123 3.93615L1.53212 3.9795V3.99468L1.54407 4.02069L1.55123 4.03152L1.56079 4.03369L1.57274 4.03803L1.58229 4.04453L1.58707 4.0532L1.59424 4.07704L1.60141 4.08354L1.61335 4.08571L1.64202 4.07921L1.65397 4.07704L1.66591 4.08354L1.68025 4.09871L1.71131 4.11172L1.72086 4.12472L1.71848 4.14206L1.70175 4.15724L1.69458 4.19842L1.70414 4.22443L1.71609 4.24827L1.72325 4.28295L1.71609 4.31763L1.69697 4.34581L1.6468 4.39783L1.63008 4.43468L1.64202 4.46069L1.67069 4.47586L1.70653 4.48453L1.74953 4.48236L1.77104 4.48453L1.78776 4.49753L1.79971 4.51054L1.81404 4.51921L1.83077 4.52354H1.84988L1.87377 4.53438L1.89288 4.56039L1.92633 4.61241L1.94306 4.64492L1.94067 4.6731L1.912 4.72729L1.89766 4.77931V4.80965L1.89288 4.81399L1.87377 4.81832L1.86899 4.82266L1.8666 4.8465L1.88572 4.87034L1.91439 4.88985L1.93111 4.90719L1.9335 4.92669L1.94067 4.9397L1.95261 4.95054L1.96456 4.96354L1.97173 4.98305L1.97412 4.99822L1.97889 5.01123L1.99562 5.02857L2.03385 5.04374L2.07446 5.0394L2.15091 5.01339L2.18675 5.01556L2.21303 5.04157L2.22737 5.08059L2.23454 5.11527L2.23692 5.18029L2.24648 5.2063L2.27276 5.23448L2.23931 5.25398L2.24648 5.27132L2.27276 5.28866L2.29426 5.306L2.30143 5.33418L2.29665 5.40354L2.30382 5.43605L2.34683 5.48374L2.36594 5.51408L2.35877 5.54443L2.34205 5.56827L2.32532 5.59862L2.31577 5.63113L2.32532 5.65497L2.3516 5.67664L2.38027 5.68098L2.41133 5.67231L2.44 5.65497L2.46628 5.64847L2.51168 5.62896H2.54752L2.58096 5.63763L2.63353 5.65497L2.68609 5.69615L2.70281 5.70699L2.74104 5.71349L2.78165 5.746L2.84855 5.8262L2.88439 5.90206L2.90111 5.92157L2.925 5.92807L2.97757 5.91507L2.99429 5.91724L3.01579 5.93024H3.04446L3.07313 5.91724L3.10658 5.89339H3.12092L3.13525 5.89773H3.14959L3.19498 5.88472L3.28338 5.88906L3.31205 5.88039L3.33833 5.86738L3.36222 5.85871L3.38372 5.86088L3.42673 5.87389L3.43868 5.87605L3.44345 5.88039L3.45062 5.91073L3.45779 5.92157L3.46496 5.93024L3.4769 5.93891L3.50557 5.94975L3.53424 5.94758L3.59397 5.93674L3.62025 5.92807L3.64414 5.9129L3.67042 5.90206L3.69909 5.9064L3.72299 5.9194L3.73493 5.94108L3.73015 5.96275L3.71582 5.98876L3.69193 6.0061L3.65131 6.02994L3.62981 6.05379L3.60831 6.07113L3.57964 6.07546L3.52469 6.07113L3.4554 6.10364L3.42673 6.11014L3.32877 6.10797L3.3001 6.11664L3.28099 6.13401L3.27143 6.15783L3.26666 6.18384V6.20768L3.2786 6.2662L3.27621 6.28573L3.23321 6.27489H3.22604L3.21887 6.27704L3.23082 6.3074L3.24754 6.33556L3.25232 6.34206L3.25471 6.34857L3.25232 6.35509L3.24754 6.3594L3.2356 6.36807L3.22843 6.37676L3.22604 6.38975V6.40275L3.24515 6.4461L3.33355 6.57184L3.41001 6.63253L3.44345 6.66719L3.4554 6.71054L3.45062 6.71704L3.44345 6.73221L3.42673 6.74955L3.41478 6.76906L3.41956 6.7929L3.43868 6.80374H3.49124L3.51274 6.81891L3.50796 6.85792L3.4769 6.90346L3.45779 6.94681L3.48885 6.97497L3.4769 6.9945L3.46257 7.001L3.44345 7.00315L3.40762 7.01398L3.38372 7.00965H3.36939L3.33116 7.02916L3.31205 7.0465L3.29055 7.05083L3.24754 7.03566L3.22843 7.03785L3.21409 7.03132L3.18542 7.01398L3.16392 7.00965L3.15436 7.01184L3.13525 7.03999V7.0465L3.13764 7.06602L3.13525 7.07251L3.12808 7.07686L3.10658 7.07901L3.09702 7.0812L3.08269 7.09418L3.07552 7.11152V7.13105L3.0803 7.15054V7.15272L3.09225 7.18957L3.08986 7.21775L3.07791 7.2459L3.06597 7.28277L3.04685 7.30659L3.00863 7.29576L2.96562 7.27627L2.93456 7.27842L2.925 7.30659L2.92739 7.34561L2.92023 7.38031L2.882 7.40413L2.84138 7.40847L2.82466 7.41497L2.81032 7.43231L2.80555 7.44967L2.81032 7.47999L2.80555 7.49733L2.76493 7.53637L2.75537 7.56019L2.77688 7.58186L2.78882 7.58837L2.80077 7.59706L2.81032 7.6079L2.8151 7.61873L2.81988 7.63605L2.82705 7.64474L2.83422 7.65125L2.83899 7.66208L2.84377 7.69024V7.71842L2.84855 7.74443L2.86528 7.76396L2.87005 7.7726L2.86766 7.78994L2.86528 7.80512L2.85811 7.81381L2.85094 7.81595L2.81988 7.8073L2.72431 7.80078L2.68131 7.78994L2.63353 7.76827L2.57858 7.75526L2.57141 7.79647L2.58335 7.85497L2.58096 7.90051L2.57619 7.91134L2.56663 7.92218L2.55946 7.93302L2.54752 7.94167L2.47584 7.95469L2.46151 7.97418L2.50451 8.09773L2.52124 8.13024L2.54752 8.14758L2.57619 8.12809H2.60725L2.63592 8.14326L2.65742 8.17359L2.66459 8.2061L2.6622 8.24512L2.64308 8.31666L2.63592 8.32965L2.6168 8.35782L2.61441 8.37085L2.62158 8.38819L2.63114 8.40117L2.64069 8.4142V8.43154L2.62636 8.44886L2.56902 8.49006L2.54752 8.50955L2.51407 8.53556L2.49734 8.56807L2.48779 8.60708L2.46628 8.64829L2.45434 8.65913L2.44 8.66777L2.40894 8.6808L2.43761 8.71546L2.47106 8.7328L2.5069 8.73499L2.54752 8.72849H2.55229L2.55468 8.73063L2.55707 8.7328L2.68131 8.9344L2.70042 8.95174L2.72193 8.96906L2.74104 8.98639L2.7506 9.0124L2.75776 9.04277L2.76732 9.06874L2.77927 9.09262L2.79838 9.11644L2.81988 9.13597L2.88678 9.17711L2.89156 9.19016L2.89633 9.201V9.25297L2.90589 9.26381L2.92978 9.25952L2.95367 9.24435L2.99429 9.20962L3.01818 9.201L3.08747 9.19879L3.11614 9.19231L3.11136 9.23785L3.13525 9.26167L3.16631 9.27901L3.17587 9.31371L3.15914 9.33538L3.09225 9.37219L3.07074 9.39822L3.09464 9.41554L3.13525 9.42423L3.17826 9.41989L3.20454 9.39822L3.2117 9.39386L3.21887 9.39171L3.22604 9.39386L3.23321 9.39822L3.2356 9.40041L3.24037 9.40255L3.28816 9.45459L3.30249 9.48056L3.31444 9.50878L3.31922 9.5391V9.56511L3.32638 9.58679L3.37417 9.62799L3.42912 9.69731L3.47451 9.72982L3.49363 9.7472L3.50557 9.77317V9.78836L3.4984 9.81652L3.49602 9.82957L3.50318 9.84255L3.51991 9.85339V9.86642L3.51035 9.8859L3.49124 9.90543L3.45301 9.94009L3.42434 9.95962L3.40045 9.96395L3.37895 9.96176L3.34789 9.9661L3.31922 9.97908L3.31683 9.99647L3.33594 10.0116L3.39806 10.0181L3.42434 10.029L3.44584 10.0441L3.45301 10.0658L3.44345 10.0918L3.42195 10.1113L3.40045 10.1265L3.38134 10.146L3.41239 10.2067L3.49363 10.2154L3.65848 10.198L3.80661 10.2392L3.94757 10.2999L3.98579 10.3346L4.12198 10.4061L4.18648 10.4516L4.27727 10.5036L4.33461 10.5622L4.7575 10.8938L4.80289 10.9241L4.84351 10.9436L4.8889 10.9523L4.93668 10.948L4.96296 10.9393L5.02747 10.9068L5.04658 10.909L5.12543 10.9328L5.1541 10.948L5.17321 10.9675L5.18993 10.9892L5.21144 11.0173L5.24966 11.0434L5.25683 11.0542L5.25922 11.0715L5.25444 11.0802L5.24727 11.0889L5.23533 11.117L5.22816 11.1235V11.1301L5.23772 11.1495L5.24489 11.1582L5.2855 11.1951L5.29267 11.2037L5.29745 11.2124L5.32373 11.2427L5.3309 11.2514L5.34523 11.2579L5.3524 11.2753L5.38107 11.2948L5.38824 11.3143L5.38585 11.336L5.37868 11.349L5.36912 11.362L5.36434 11.3793L5.36195 11.401V11.4118L5.37151 11.4183L5.39301 11.4248L5.41213 11.4357L5.42407 11.4508L5.43602 11.4638L5.45752 11.466L5.4838 11.4746L5.48619 11.479L5.50769 11.5072L5.53875 11.5722L5.56026 11.5939L5.61043 11.6155L5.62237 11.6416V11.6437L5.62954 11.6697L5.67971 11.7499L5.68927 11.7629L5.71555 11.7781L5.72511 11.7868L5.73228 11.7998L5.73944 11.8258L5.74422 11.8388L5.76811 11.8605L5.82306 11.8995L5.84218 11.9255L5.84696 11.958L5.8374 11.9905L5.62476 12.5216L5.61521 13.1393H6.07632L6.09065 13.148L6.09543 13.1675L6.09065 13.8892L6.09304 13.9347L6.24117 13.9543L6.2555 13.9586L6.26984 13.9673L6.29373 13.9911L6.31284 14.0193L6.32479 14.0518L6.33673 14.119L6.34151 14.132L6.35346 14.1429L6.37018 14.1493L6.38452 14.1515H6.40124L6.4538 14.145H6.47053L6.48725 14.1493L6.50159 14.1602L6.53026 14.2035L6.57565 14.2512L6.62821 14.2989L6.63777 14.3097L6.64494 14.3249L6.64733 14.3423L6.64494 14.3574L6.63299 14.3705L6.62105 14.3813L6.6091 14.3943L6.60671 14.4116L6.6091 14.4224L6.62582 14.4572L6.65449 14.4853L6.66166 14.5005L6.66644 14.5026L6.69272 14.5785L6.69511 14.598L6.70706 14.6262L6.71422 14.637L6.72378 14.6457L6.74289 14.6587L6.76201 14.6717L6.81696 14.6869L6.81457 14.6847H6.81696L6.81935 14.6825L6.82651 14.6739V14.6847L6.92925 14.6934L6.96031 14.6847L6.97225 14.676L6.9842 14.6674L6.99614 14.6544L6.99853 14.6392L6.99614 14.6175L6.97703 14.5893L6.96989 14.572L6.97464 14.546L6.99614 14.5503L7.05587 14.5807H7.15383L7.18011 14.5915L7.20639 14.5828L7.29957 14.5915L7.32826 14.585L7.35452 14.5655L7.37363 14.5395L7.3808 14.5091V14.494L7.37363 14.4636L7.37124 14.4485L7.37605 14.4311L7.38799 14.4008L7.39036 14.3813L7.38319 14.3141L7.37363 14.2815L7.36169 14.2534L7.34021 14.2317L7.31151 14.21L7.28762 14.1884L7.27568 14.1558L7.28048 14.1472L7.29001 14.1363L7.29718 14.1255L7.28048 14.1125L7.28762 14.093L7.29957 14.0756L7.30437 14.0691L7.3808 14.002L7.39752 13.9976L7.47398 14.0085H7.49787L7.52415 13.9824L7.51459 13.9543L7.47876 13.9347L7.43578 13.9261L7.39752 13.9109L7.40708 13.8806L7.44772 13.8567L7.49787 13.8632L7.52176 13.8524H7.54565L7.56954 13.8589L7.59821 13.8632H7.60538L7.61733 13.8546H7.62691L7.63644 13.8589L7.6508 13.8784L7.66033 13.8849L7.67945 13.8806L7.69378 13.8697L7.70573 13.8676L7.71767 13.8849L7.71289 13.8914L7.71053 13.8958L7.70812 13.9153L7.72962 13.9001L7.75112 13.8784L7.76785 13.8719L7.77979 13.9261L7.79174 13.9478L7.81324 13.9608L7.84193 13.9564L7.83952 13.9824L7.83235 13.9976L7.79174 14.0453L7.76546 14.0908L7.7559 14.1104L7.73918 14.0865L7.72006 14.0713L7.69617 14.0626L7.66511 14.0583L7.646 14.0518L7.58866 14.0237L7.55999 14.0171L7.53371 14.0214L7.48831 14.0366H7.45725L7.39994 14.028L7.37841 14.0345L7.36169 14.0583L7.40708 14.0691L7.44292 14.0865L7.4692 14.1168L7.47876 14.1667L7.49787 14.1819L7.58866 14.2317L7.62211 14.2425L7.646 14.2447L7.66033 14.2599L7.67228 14.2794L7.69858 14.2946L7.72248 14.2902L7.74156 14.2729L7.75831 14.249L7.76546 14.223L7.7822 14.2339V14.2425L7.7774 14.2512L7.77501 14.2642V14.2859V14.2946L7.77979 14.3032L7.80129 14.3163L7.80368 14.3206L7.80129 14.3813L7.81563 14.3943L7.85147 14.3964L7.88014 14.3921L7.9327 14.3705L7.96139 14.3661L7.97334 14.3705L7.99482 14.3834L8.00918 14.3878L8.02588 14.3856L8.05696 14.3791L8.07127 14.3769L8.10233 14.3791L8.11427 14.3813L8.12863 14.3878L8.14294 14.3964L8.15011 14.403L8.15253 14.4094L8.16206 14.4224L8.174 14.4485V14.5178L8.17878 14.5416L8.21701 14.5958L8.2624 14.6045L8.31258 14.585L8.75218 14.3227L8.80235 14.3076L8.85492 14.2989L8.90511 14.3054L8.94095 14.3184L8.9529 14.3227L8.97437 14.3357L8.98154 14.3509L8.98873 14.3769L9.00782 14.4073L9.02933 14.4333L9.05083 14.4485L9.04127 14.4875L9.07472 14.572L9.058 14.624L9.07711 14.6327L9.08667 14.6435L9.0795 14.6522L9.058 14.6544L9.06277 14.6695L9.06516 14.6977L9.06994 14.715L9.07472 14.7216L9.12728 14.7736L9.18701 14.8061L9.21329 14.8278L9.24674 14.8733L9.30886 14.9817L9.34711 15.0337L9.38531 15.0727L9.40442 15.1009L9.41398 15.1312L9.42593 15.1464L9.50955 15.1767L9.55494 15.2201L9.57644 15.2483L9.58603 15.2743L9.59797 15.2938L9.67201 15.3501L9.71263 15.4065L9.71979 15.4238V15.3783L9.74132 15.3892L9.76997 15.4238L9.78669 15.4542L9.79864 15.4953L9.8058 15.5539V15.6124L9.79625 15.6493L9.813 15.6774L9.82253 15.6861L9.83447 15.6904L9.83209 15.7012L9.82494 15.762L9.8058 15.7403L9.79147 15.7511L9.78191 15.7771L9.77236 15.7966L9.76041 15.8161L9.75563 15.8335L9.76041 15.8703L9.77236 15.9115L9.80342 15.9375L9.84164 15.9419L9.87746 15.9202L9.90376 15.9158L10.0137 15.9115L10.0471 15.9158L10.0519 15.9245L10.0543 15.9354L10.0566 15.9613L10.0614 15.9679L10.0734 15.9657L10.0853 15.9592L10.0949 15.957L10.1116 15.97L10.1212 15.9852L10.1331 16.0286L10.1594 16.0221L10.1714 16.0437L10.1761 16.0784L10.1714 16.1109L10.1618 16.1283L10.1331 16.1521L10.1236 16.1629L10.1212 16.1781L10.126 16.1911L10.1283 16.202L10.114 16.215L10.0997 16.1889L10.0782 16.1629L10.0495 16.1413L10.0232 16.1304L9.99455 16.1478L9.98977 16.1846L9.99691 16.2258L10.0089 16.254L10.0734 16.332L10.0853 16.3623L10.0973 16.3775L10.1236 16.384L10.1809 16.3884L10.2406 16.4014L10.286 16.4274L10.3219 16.4664L10.3529 16.5206L10.3696 16.5856L10.372 16.7764L10.384 16.824L10.4676 17.0234L10.4795 17.0386L10.5249 17.0841L10.5751 17.1578L10.5918 17.1773L10.6396 17.2185L10.6683 17.2618L10.6707 17.303L10.6396 17.3833L10.642 17.4222L10.6468 17.4439L10.6587 17.4591L10.7567 17.548L10.7853 17.5675L10.8499 17.5848L10.8857 17.6L10.9001 17.6238L10.9048 17.6607L10.9192 17.6888L10.9359 17.7105L11.0004 17.7734L11.0291 17.7951L11.0673 17.8059L11.0745 17.8145L11.0793 17.8254L11.0816 17.8384L11.0888 17.8493L11.1055 17.8536L11.2584 17.8644L11.2871 17.8622L11.3683 17.8449H11.4376L11.4711 17.8536L11.4974 17.8709L11.5213 17.8774L11.6168 17.8644L11.6837 17.8731L11.741 17.8969L11.7936 17.9294L11.9584 18.0746L12.011 18.1007L12.2595 18.1527L12.312 18.1744L12.3575 18.209L12.4626 18.3109L12.4721 18.3261L12.4936 18.3759L12.5055 18.3933L12.5271 18.4106L12.5844 18.4301L12.6059 18.4496L12.6179 18.4843L12.6011 18.4995L12.5701 18.5017H12.5438L12.5151 18.5038L12.4912 18.5125L12.4793 18.532L12.4816 18.5623L12.5103 18.5927L12.6179 18.6382L12.6919 18.6686L12.7421 18.7011L12.8544 18.7986L12.9189 18.8159L12.9475 18.8333L12.9595 18.8658L12.9738 18.881L13.055 18.9005L13.0742 18.92L13.0885 18.946L13.1076 18.9655L13.1363 18.972L13.1674 18.9764L13.6428 19.1302L13.6882 19.1562L13.7121 19.1844L13.724 19.2148L13.7264 19.2863L13.7336 19.3145L13.7551 19.3383L13.8913 19.4358L13.9964 19.4966L14.0681 19.5572L14.0848 19.5637L14.1182 19.5464L14.1517 19.5485L14.2138 19.5681L14.2449 19.5659L14.3022 19.5507L14.3667 19.542L14.4575 19.5009L14.4885 19.4966H14.5029L14.5149 19.5009L14.5411 19.5225L14.5555 19.5269L14.5794 19.5312L14.6749 19.5572L14.706 19.5616L14.8111 19.5529L14.8398 19.5464L14.8661 19.542L14.8971 19.5464L14.9377 19.5789L14.964 19.6244L14.9855 19.6743L15.0094 19.7111L15.0619 19.735L15.1886 19.7306L15.2507 19.7415L15.2914 19.7805L15.3081 19.8238L15.3319 19.8563L15.3941 19.865L15.5135 19.8563L15.5303 19.8585L15.5542 19.8715L15.5709 19.8759L15.5875 19.8715L15.5971 19.8628L15.6067 19.8542L15.6163 19.8455L15.7667 19.761L15.9006 19.6548L15.9173 19.6461L16.0081 19.5681L16.0295 19.5594L16.0917 19.542L16.118 19.5377L16.1515 19.5312L16.1658 19.5095L16.1729 19.4835L16.1897 19.4554L16.2422 19.4315L16.3068 19.4402L16.419 19.477L16.4835 19.4792L16.5409 19.4684L16.5935 19.4424L16.6388 19.4033L16.6603 19.373L16.6746 19.3318L16.6842 19.2863L16.6795 19.2494L16.6675 19.2603L16.6603 19.2646L16.6388 19.2711L16.7153 19.1909L16.7296 19.1779L16.7487 19.1692L16.7941 19.1281L16.8228 19.1172H16.8348L16.8802 19.1259H16.9327L16.9446 19.1237L16.9662 19.1086L16.9805 19.1064L17.0283 19.1086L17.0426 19.1064L17.0999 19.0934L17.1621 19.0847L17.1788 19.0804L17.2027 19.0587L17.2098 19.0544V19.0479L17.2457 19.0219L17.3388 18.9677L17.3627 18.9482L17.3747 18.9395L17.3866 18.9373L17.3938 18.933L17.3962 18.9178L17.401 18.9091L17.4249 18.8874L17.4344 18.881L17.4726 18.8723L17.5635 18.8701L17.5944 18.8549L17.6255 18.8333L17.671 18.8224L17.757 18.8181L17.8 18.8246L17.874 18.8528L17.9146 18.8615L18.0006 18.8658L18.0437 18.8723L18.0771 18.8918L18.0867 18.881L18.1177 18.8897L18.2634 18.8918L18.2778 18.8983L18.2873 18.9113L18.3017 18.9265L18.3208 18.933H18.359L18.3781 18.9265L18.3948 18.9113L18.402 18.946L18.4259 18.9764L18.4594 18.998L18.5 19.0045V19.0153L18.488 19.024L18.4641 19.05L18.457 19.0544L18.4426 19.0608V19.0717L18.4522 19.0782L18.4689 19.076V19.0912L18.4737 19.102L18.4809 19.1086L18.5095 19.0956L18.5191 19.102L18.5262 19.1107L18.5334 19.1172L18.5406 19.1194L18.5454 19.1259L18.5526 19.1346L18.5669 19.1367L18.5812 19.1346L18.6242 19.1172L18.6147 19.1281L18.6098 19.1432L18.6123 19.1562L18.6242 19.1671L18.6075 19.1736L18.5932 19.1823L18.5765 19.1887L18.5573 19.1866L18.5717 19.2017L18.6147 19.2299L18.6123 19.2538L18.629 19.2776L18.6768 19.3166L18.6959 19.3448L18.7867 19.6916L18.7915 19.761L18.7676 19.9474V19.9626L18.7723 19.9951L18.7771 20.0081L18.7843 20.0211L18.8106 20.0449L18.8273 20.0731L18.8368 20.1056L18.844 20.1728L18.8536 20.1836L18.8464 20.2227L18.9396 20.3202L18.9587 20.3679L18.9443 20.3982L18.899 20.4437L18.8918 20.4762L18.8942 20.4936L18.9085 20.5218L18.9133 20.5478L18.9324 20.602L18.9372 20.6193L18.9396 20.6258H18.9443L18.9611 20.6236L18.9682 20.6258L18.9993 20.6605L19.0017 20.667L19.016 20.68L19.0279 20.7081L19.0447 20.7688L19.0782 20.8447L19.0877 20.9184L19.0973 20.9401L19.1164 20.9509L19.3052 20.9639L19.2932 20.9726L19.3888 21.0007L19.4246 21.0051L19.439 21.003L19.4652 20.9964L19.4819 20.9943L19.4987 20.9964L19.5273 21.0116L19.5441 21.0138L19.6229 20.9964L19.654 20.9943L19.6898 20.9964L19.7185 21.003L19.74 21.0203L19.7543 21.0549L19.7566 21.068L19.7543 21.0723L19.7519 21.081L19.7472 21.0983L19.74 21.1633H19.7615L19.7925 21.146L19.8403 21.107L19.8976 21.0788L19.955 21.0658L20.0075 21.0766L20.0506 21.1286L20.0936 21.2132L20.1246 21.2544L20.1628 21.2717L20.2082 21.2782L20.2513 21.2912L20.2991 21.2999L20.3492 21.2934L20.3994 21.2587L20.4066 21.2565L20.4113 21.2652L20.4233 21.2674L20.4376 21.2631L20.4495 21.2565L20.4663 21.2414H20.4734L20.4782 21.2457L20.4878 21.25L20.5092 21.2457L20.5403 21.2197L20.5595 21.2089L20.6048 21.2002L20.6455 21.198L20.6359 21.2219L20.6622 21.2349L20.7362 21.2392L20.8247 21.2262L21.0779 21.2717H21.1974L21.214 21.276L21.2212 21.2869L21.226 21.302L21.2356 21.3172L21.2475 21.3237L21.2953 21.3216L21.3503 21.3454L21.3861 21.3866L21.4506 21.4863L21.4674 21.5015L21.4912 21.5101L21.5199 21.5166L21.551 21.5188L21.5653 21.5145L21.5773 21.5101L21.5892 21.5058L21.5988 21.5123L21.6107 21.5232L21.6226 21.5253L21.6513 21.5188L21.7302 21.4819L21.809 21.469L21.8496 21.4646L22.0479 21.3974L22.1124 21.3952L22.1722 21.4148L22.2558 21.495L22.313 21.5188H22.368L22.6165 21.495L22.6404 21.5058L22.65 21.5318L22.6547 21.5405L22.7097 21.5882L22.7192 21.586L22.7264 21.5751L22.736 21.5686L22.8506 21.5383L22.9103 21.5361L22.9653 21.5491H22.9725L22.9869 21.547L22.994 21.5491V21.5557L22.9916 21.573L22.994 21.5795L23.0084 21.599L23.0203 21.6055L23.0681 21.612L23.0824 21.6185L23.1111 21.6358L23.1206 21.6272L23.1278 21.599L23.1302 21.5882L23.1254 21.5817V21.573L23.1398 21.56L23.1469 21.5557L23.1851 21.5491L23.2353 21.547L23.2616 21.5491L23.2807 21.56L23.2759 21.5643L23.2616 21.5882L23.2926 21.6099L23.3643 21.6207L23.393 21.6358L23.4743 21.7074L23.491 21.7117H23.5125L23.5053 21.69L23.4743 21.6402V21.638V21.6315V21.625L23.4695 21.6142L23.4623 21.612H23.4504L23.436 21.6033H23.4265L23.4193 21.599L23.4145 21.5686L23.4097 21.56V21.5491L23.4217 21.5318L23.4432 21.508L23.4551 21.4863L23.479 21.4733L23.577 21.4451L23.6009 21.4429L23.6247 21.4451L23.6462 21.4581L23.6988 21.508L23.7036 21.5209V21.6033L23.7084 21.625L23.7418 21.6727L23.7203 21.69L23.7418 21.703L23.8756 21.7182L24.0691 21.7637L24.2985 21.8006L24.5326 21.8677L24.5374 21.8743L24.5469 21.9089L24.5518 21.9176L24.6043 21.9371L24.8814 22L24.8647 21.9826L24.8432 21.9696L24.9197 21.948L24.9388 21.9371L24.9507 21.9263L24.9531 21.9219V21.9133L24.9579 21.8981L24.9818 21.87L24.9889 21.8548L24.977 21.8418L24.9627 21.8352L24.9292 21.8244L24.9603 21.8027H24.9842L25.0057 21.8114L25.0367 21.8158L25.0272 21.8071L25.0153 21.7919L25.0057 21.7854L25.0105 21.7767L25.0128 21.7507L25.0177 21.7442L25.0296 21.7355L25.0367 21.7399L25.0415 21.7485L25.0654 21.7659L25.0702 21.7897L25.0774 21.8114L25.1228 21.6879L25.1538 21.1958L25.1586 21.1741L25.1681 21.1612L25.1873 21.1416L25.1968 21.1286L25.2016 21.0766L25.1849 21.0181L25.1777 20.9639L25.2064 20.9227L25.2374 20.9163H25.2637L25.2876 20.9119L25.3091 20.8859L25.3187 20.8599L25.388 20.3657L25.3999 20.3202L25.419 20.279L25.4525 20.2552L25.622 20.2075L25.6723 20.1771L25.6986 20.1641L25.7272 20.1554L25.7846 20.1468L25.7965 20.1316L25.8037 20.0948L25.8251 20.0579L25.8801 20.0644L25.9422 20.0861L25.9924 20.0926L26.0235 20.0774V20.0557L26.0092 20.0276L26.002 19.9929L26.0115 19.9755L26.0546 19.9344L26.0689 19.9084V19.8975L26.064 19.891L26.0593 19.8802L26.0617 19.8672L26.0713 19.8563L26.0832 19.8477L26.1095 19.8368L26.1214 19.8325L26.1382 19.8195L26.1501 19.813H26.1645H26.1931L26.2074 19.8108L26.217 19.8043L26.2266 19.7826L26.2385 19.7761L26.2528 19.7718L26.4846 19.748L26.5156 19.7393L26.5252 19.7306L26.5371 19.7176L26.5491 19.7111L26.5634 19.7133L26.5802 19.7219H26.5921L26.6351 19.7133L26.647 19.7089L26.6566 19.7025L26.6662 19.6959L26.6805 19.67L26.6924 19.6569L26.7068 19.6526L27.0389 19.6613L27.0938 19.67H27.1488L27.1894 19.6613L27.2014 19.6634L27.2133 19.6677L27.2252 19.6743L27.2347 19.6808H27.2491L27.2802 19.6526L27.2945 19.5919L27.3064 19.3751L27.316 19.3513L27.3399 19.3383L27.3972 19.3296L27.4188 19.3123L27.4211 19.2841L27.4092 19.2603L27.3925 19.2365L27.3805 19.2083L27.3734 19.0392L27.3757 19.0219L27.3805 19.0067L27.3972 18.9872L27.402 18.972L27.4164 18.9482L27.445 18.9352H27.4736L27.5 18.9438L27.4522 18.8441Z" fill="white"/>
</svg>
